<?xml version="1.0" encoding="utf-8"?>
<!-- Generator: Adobe Illustrator 25.3.1, SVG Export Plug-In . SVG Version: 6.00 Build 0)  -->
<svg fill="#fff" version="1.1" id="Capa_1" xmlns="http://www.w3.org/2000/svg" xmlns:xlink="http://www.w3.org/1999/xlink" x="0px" y="0px"
	 viewBox="0 0 348.3 348.3" style="enable-background:new 0 0 348.3 348.3;" xml:space="preserve">
<path d="M299.5,11.5L11.7,299.2c-10.1,9-8.9,26.3,2.3,37.4c11.1,10.9,28.1,12,37,2C147,242.6,242.9,146.7,338.8,50.8
	c9.1-10.7,8.8-26.5,0-36.6C329.1,3.1,311.4,1.5,299.5,11.5z"/>
<path d="M480.3-68.6"/>
<path d="M338.9,299.3L51.1,11.5c-9-10.1-26.3-8.9-37.4,2.3c-10.9,11.1-12,28.1-2,37c95.9,95.9,191.9,191.9,287.8,287.8
	c10.7,9.1,26.5,8.8,36.6,0C347.2,328.9,348.8,311.2,338.9,299.3z"/>
</svg>
