<?xml version="1.0" encoding="utf-8"?>
<!-- Generator: Adobe Illustrator 25.3.1, SVG Export Plug-In . SVG Version: 6.00 Build 0)  -->
<svg version="1.1" id="Слой_1" xmlns="http://www.w3.org/2000/svg" xmlns:xlink="http://www.w3.org/1999/xlink" x="0px" y="0px"
	 viewBox="0 0 40 40" style="enable-background:new 0 0 40 40;" xml:space="preserve">
<style type="text/css">
	.st0{fill:#95A0B7;}
	.st1{fill:#FFFFFF;}
	.st2{fill:#4B4A71;}
</style>
<circle class="st0" cx="20" cy="20" r="20"/>
<circle class="st1" cx="20" cy="17.3" r="7.9"/>
<path class="st2" d="M32.1,33.3c0.8,1.3,0.6,1.9,0.6,2.1c-0.1,0.2-0.2,0.4-1.5,1.1c-0.9,0.6-1.5,0.9-2.1,1.2
	c-0.9,0.4-1.6,0.7-2.1,0.9c-0.2,0.1-1,0.4-1.9,0.6C22.7,40,20.4,40,19.9,40c-0.5,0-2.3,0-4.4-0.5c-2.6-0.6-4.6-1.6-5.2-1.9
	c-0.5-0.3-0.6-0.4-1.6-0.9c-0.1-0.1-0.5-0.3-1-0.7c-0.4-0.3-0.5-0.5-0.5-0.6c-0.1-0.2-0.1-0.5,0.1-1.2c0.3-0.7,0.6-1.3,0.7-1.5
	c0.4-0.5,0.8-1.1,1.8-1.9c0.4-0.4,1.9-1.5,4.2-2.2c2.5-0.8,4.6-0.7,6.2-0.7c3.3,0,5.6,0.8,6.1,0.9c2.2,0.7,3.2,1.5,3.5,1.8
	C31.1,31.6,31.7,32.5,32.1,33.3z"/>
</svg>
