<?xml version="1.0" encoding="utf-8"?>
<!-- Generator: Adobe Illustrator 24.1.3, SVG Export Plug-In . SVG Version: 6.00 Build 0)  -->
<svg version="1.1" id="Слой_1" xmlns="http://www.w3.org/2000/svg" xmlns:xlink="http://www.w3.org/1999/xlink" x="0px" y="0px"
	 viewBox="0 0 40 40" style="enable-background:new 0 0 40 40;" xml:space="preserve">
<style type="text/css">
	.st0{fill:#95A0B7;}
	.st1{fill:#FFFFFF;}
	.st2{fill:#4B4A71;}
</style>
<circle class="st0" cx="20" cy="20" r="19.3"/>
<circle class="st1" cx="20" cy="17.4" r="7.6"/>
<path class="st2" d="M31.7,32.8c0.8,1.3,0.6,1.8,0.6,2c-0.1,0.2-0.2,0.4-1.4,1.1c-0.9,0.6-1.4,0.9-2,1.2c-0.9,0.4-1.5,0.7-2,0.9
	c-0.2,0.1-1,0.4-1.8,0.6c-2.5,0.7-4.7,0.7-5.2,0.7c-0.5,0-2.2,0-4.2-0.5c-2.5-0.6-4.4-1.5-5-1.8c-0.5-0.3-0.6-0.4-1.5-0.9
	c-0.1-0.1-0.5-0.3-1-0.7c-0.4-0.3-0.5-0.5-0.5-0.6c-0.1-0.2-0.1-0.5,0.1-1.2c0.3-0.7,0.6-1.3,0.7-1.4c0.4-0.5,0.8-1.1,1.7-1.8
	c0.4-0.4,1.8-1.4,4.1-2.1c2.4-0.8,4.4-0.7,6-0.7c3.2,0,5.4,0.8,5.9,0.9c2.1,0.7,3.1,1.4,3.4,1.7C30.7,31.2,31.3,32.1,31.7,32.8z"/>
</svg>
