<?xml version="1.0" encoding="utf-8"?>
<!-- Generator: Adobe Illustrator 25.3.1, SVG Export Plug-In . SVG Version: 6.00 Build 0)  -->
<svg version="1.1" id="Слой_1" xmlns="http://www.w3.org/2000/svg" xmlns:xlink="http://www.w3.org/1999/xlink" x="0px" y="0px"
	 viewBox="0 0 1100 340" style="enable-background:new 0 0 1100 340;" xml:space="preserve">
<style type="text/css">
	.st0{fill:#FFEB6D;}
	.st1{fill:#030304;}
</style>
<g>
	<rect x="1.4" y="1.7" class="st0" width="1098.2" height="337.9"/>
	<path class="st0" d="M1099.2,2.1v337.2H1.8V2.1H1099.2 M1100,1.4H1V340h1099V1.4L1100,1.4z"/>
</g>
<path class="st1" d="M408.6,253.1"/>
<g>
	<g>
		<path class="st1" d="M181.3,106c2-0.8,3.8-0.9,5.6-0.1c1.8,0.8,3.1,2.1,4,4.2l17.9,41c2.8,6.3,3.8,12.4,3.3,18.4
			c-0.5,5.9-2.6,11.5-6,16.2c-3.6,4.8-8.3,8.5-14.6,11.2c-6.2,2.7-12.3,3.7-18.2,3.1s-11.3-2.8-16.1-6.5c-4.8-3.7-8.6-8.7-11.4-14.9
			l-17.9-41c-0.8-2-0.9-3.9-0.2-5.9c0.8-2,2.2-3.4,4.3-4.3c1.8-0.8,3.6-0.8,5.6-0.1c2,0.7,3.4,2,4.3,4l17.9,41
			c1.7,3.7,3.9,6.7,6.7,8.7c2.8,2,5.9,3.2,9.3,3.6c3.4,0.3,6.5-0.2,9.6-1.4c3.2-1.4,5.9-3.6,8.1-6.2c2.1-2.8,3.5-5.9,4-9.3
			c0.5-3.6,0-7.2-1.7-11l-17.9-41c-0.8-2-1-3.8-0.4-5.7S179.3,106.9,181.3,106z"/>
	</g>
</g>
<g>
	<g>
		<path class="st1" d="M239.1,76.3c1.1-0.4,2.3-0.7,3.7-0.6c1.4,0.1,2.6,0.4,3.6,1.1l46.2,30.4l-5.8,2.2l9.9-54.6
			c0.5-2.7,2-4.5,4.2-5.5c1.9-0.8,3.7-0.8,5.8-0.3c2,0.7,3.5,2,4.3,4.1l28.8,65.7c0.8,2,0.9,3.9,0.3,5.8c-0.7,2-2.1,3.3-4.2,4.2
			c-2.1,0.9-4.2,1-6,0.3c-2-0.8-3.3-2-4.2-4.1l-23.4-53.5l4.9-0.9l-7.6,45.4c-0.3,1.2-0.8,2.2-1.6,3.3c-0.8,1.1-1.7,1.8-2.8,2.1
			c-0.9,0.5-2,0.7-3.4,0.5c-1.3-0.2-2.5-0.5-3.6-1.1l-36.7-24.8l0.3-7.3l25.1,57.4c0.8,2,1,3.9,0.4,5.8s-2,3.2-3.9,4.1
			s-3.7,0.8-5.5,0.1c-1.8-0.8-3.1-2.1-4-4.2l-28.8-65.7c-0.8-2-0.8-3.8,0-5.9C235.8,78.6,237.2,77.2,239.1,76.3z"/>
	</g>
</g>
<path class="st1" d="M178.6,247.3c27.4,41.7,81.5,57.1,126.7,36.1c45.2-21.1,68.2-72.7,53.7-120.5c-35.5,6.1-71.1,12.3-106.7,18.4
	C227.7,203.4,203.2,225.3,178.6,247.3z"/>
<path class="st1" d="M575-61.6"/>
</svg>
