<?xml version="1.0" encoding="utf-8"?>
<!-- Generator: Adobe Illustrator 25.3.1, SVG Export Plug-In . SVG Version: 6.00 Build 0)  -->
<svg version="1.1" id="Слой_1" xmlns="http://www.w3.org/2000/svg" xmlns:xlink="http://www.w3.org/1999/xlink" x="0px" y="0px"
	 viewBox="0 0 1100 340" style="enable-background:new 0 0 1100 340;" xml:space="preserve">
<style type="text/css">
	.st0{fill:#FFEB6D;}
	.st1{fill:#030304;}
</style>
<g>
	<rect x="1.4" y="1.7" class="st0" width="1098.2" height="337.9"/>
	<path class="st0" d="M1099.2,2.1v337.2H1.8V2.1H1099.2 M1100,1.4H1V340h1099V1.4L1100,1.4z"/>
</g>
<path class="st1" d="M408.6,253.1"/>
<g>
	<g>
		<path class="st1" d="M174.1,96.5c2.2-0.9,4.1-1,6.1-0.1c1.9,0.9,3.4,2.3,4.3,4.5l19.4,44.4c3,6.8,4.1,13.4,3.6,19.9
			c-0.5,6.4-2.8,12.5-6.5,17.5c-3.9,5.2-9,9.2-15.8,12.1c-6.7,2.9-13.3,4-19.7,3.4c-6.4-0.6-12.2-3-17.4-7s-9.3-9.4-12.3-16.1
			l-19.4-44.4c-0.9-2.2-1-4.2-0.2-6.4c0.9-2.2,2.4-3.7,4.7-4.7c1.9-0.9,3.9-0.9,6.1-0.1c2.2,0.8,3.7,2.2,4.7,4.3l19.4,44.4
			c1.8,4,4.2,7.3,7.3,9.4c3,2.2,6.4,3.5,10.1,3.9c3.7,0.3,7-0.2,10.4-1.5c3.5-1.5,6.4-3.9,8.8-6.7c2.3-3,3.8-6.4,4.3-10.1
			c0.5-3.9,0-7.8-1.8-11.9L170.4,107c-0.9-2.2-1.1-4.1-0.4-6.2C170.6,98.8,171.9,97.5,174.1,96.5z"/>
	</g>
</g>
<g>
	<g>
		<path class="st1" d="M236.7,64.4c1.2-0.4,2.5-0.8,4-0.6s2.8,0.4,3.9,1.2l50,32.9l-6.3,2.4l10.7-59.1c0.5-2.9,2.2-4.9,4.5-6
			c2.1-0.9,4-0.9,6.3-0.3c2.2,0.8,3.8,2.2,4.7,4.4l31.2,71.2c0.9,2.2,1,4.2,0.3,6.3c-0.8,2.2-2.3,3.6-4.5,4.5s-4.5,1.1-6.5,0.3
			c-2.2-0.9-3.6-2.2-4.5-4.4l-25.3-57.9l5.3-1l-8.2,49.2c-0.3,1.3-0.9,2.4-1.7,3.6c-0.9,1.2-1.8,1.9-3,2.3c-1,0.5-2.2,0.8-3.7,0.5
			c-1.4-0.2-2.7-0.5-3.9-1.2l-39.7-26.9l0.3-7.9l27.2,62.2c0.9,2.2,1.1,4.2,0.4,6.3c-0.6,2.1-2.2,3.5-4.2,4.4c-2.1,1-4,0.9-6,0.1
			c-1.9-0.9-3.4-2.3-4.3-4.5l-31.2-71.2c-0.9-2.2-0.9-4.1,0-6.4C233.1,66.9,234.7,65.4,236.7,64.4z"/>
	</g>
</g>
<path class="st1" d="M171.2,249.6c29.7,45.2,88.3,61.8,137.2,39.1c49-22.9,73.9-78.7,58.2-130.5c-38.4,6.6-77,13.3-115.6,19.9
	C224.4,202,197.8,225.7,171.2,249.6z"/>
<path class="st1" d="M575-61.6"/>
</svg>
