<?xml version="1.0" encoding="utf-8"?>
<!-- Generator: Adobe Illustrator 25.3.1, SVG Export Plug-In . SVG Version: 6.00 Build 0)  -->
<svg version="1.1" id="Слой_1" xmlns="http://www.w3.org/2000/svg" xmlns:xlink="http://www.w3.org/1999/xlink" x="0px" y="0px"
	 viewBox="0 0 1100 340" style="enable-background:new 0 0 1100 340;" xml:space="preserve">
<style type="text/css">
	.st0{fill:#FFEB6D;}
	.st1{fill:#030304;}
</style>
<g>
	<rect x="1.4" y="1.7" class="st0" width="1098.2" height="337.9"/>
	<path class="st0" d="M1099.2,2.1v337.2H1.8V2.1H1099.2 M1100,1.4H1V340h1099V1.4L1100,1.4z"/>
</g>
<path class="st1" d="M408.6,253.1"/>
<g>
	<g>
		<path class="st1" d="M201.7,95.3c2.3-1,4.5-1.1,6.6-0.1c2.1,0.9,3.7,2.5,4.7,4.9l21.1,48.3c3.3,7.4,4.5,14.6,3.9,21.7
			c-0.6,7-3.1,13.5-7.1,19.1c-4.2,5.6-9.8,10-17.2,13.2c-7.3,3.2-14.5,4.4-21.4,3.6s-13.3-3.3-19-7.6s-10.1-10.2-13.4-17.5
			l-21.1-48.3c-1-2.3-1.1-4.6-0.2-6.9c0.9-2.3,2.6-4,5.1-5.1c2.1-0.9,4.2-0.9,6.6-0.1c2.3,0.8,4,2.4,5.1,4.7l21.1,48.3
			c2,4.4,4.6,7.9,7.9,10.3s7,3.8,10.9,4.2c4,0.4,7.7-0.2,11.3-1.7c3.8-1.7,7-4.2,9.5-7.3c2.5-3.3,4.1-6.9,4.7-11
			c0.6-4.2,0-8.5-2-12.9l-21.1-48.3c-1-2.3-1.2-4.5-0.5-6.7C197.9,97.9,199.3,96.4,201.7,95.3z"/>
	</g>
</g>
<g>
	<g>
		<path class="st1" d="M269.7,60.4c1.3-0.5,2.7-0.8,4.3-0.7c1.7,0.1,3.1,0.5,4.2,1.3l54.4,35.8l-6.8,2.6l11.6-64.3
			c0.6-3.2,2.3-5.3,5-6.5c2.2-0.9,4.4-1,6.8-0.3c2.3,0.8,4.1,2.3,5.1,4.8l33.9,77.3c1,2.3,1.1,4.6,0.3,6.8c-0.8,2.3-2.5,3.9-5,5
			s-4.9,1.2-7.1,0.4c-2.3-0.9-3.9-2.4-4.9-4.8l-27.5-63l5.8-1.1l-9,53.5c-0.4,1.4-1,2.6-1.9,3.9s-2,2.1-3.3,2.5
			c-1.1,0.6-2.4,0.8-4,0.6c-1.5-0.2-2.9-0.6-4.2-1.3l-43.2-29.2l0.4-8.6l29.6,67.6c1,2.3,1.2,4.6,0.5,6.8s-2.3,3.8-4.6,4.8
			c-2.3,1-4.4,1-6.5,0.1s-3.7-2.5-4.7-4.9L265,72.2c-1-2.3-1-4.5,0-6.9C265.8,63.1,267.5,61.4,269.7,60.4z"/>
	</g>
</g>
<path class="st1" d="M198.5,261.7c32.2,49.1,96,67.2,149.1,42.5c53.2-24.8,80.3-85.6,63.2-141.8c-41.8,7.2-83.7,14.5-125.6,21.7
	C256.3,210,227.4,235.8,198.5,261.7z"/>
<path class="st1" d="M575-61.6"/>
</svg>
